<svg width="195" height="116" viewBox="0 0 195 116" fill="none" xmlns="http://www.w3.org/2000/svg">
<path d="M42.224 29.6C42.208 32.272 41.464 34.344 39.992 35.816C38.536 37.272 36.52 38 33.944 38H30.68V21.2H33.944C36.52 21.2 38.536 21.936 39.992 23.408C41.464 24.864 42.208 26.928 42.224 29.6ZM34.232 35.888C36.008 35.888 37.368 35.304 38.312 34.136C39.272 32.952 39.768 31.44 39.8 29.6C39.768 27.76 39.272 26.256 38.312 25.088C37.368 23.904 36.008 23.312 34.232 23.312H32.936V35.888H34.232ZM59.7839 38H50.2319V25.208C50.2319 24.024 50.6079 23.072 51.3599 22.352C51.8719 21.872 52.4479 21.56 53.0879 21.416C53.7279 21.272 54.5119 21.2 55.4399 21.2H59.7839V23.312H55.1279C53.3679 23.312 52.4879 24.048 52.4879 25.52V28.256H58.0319V30.368H52.4879V35.888H59.7839V38ZM69.7954 38H67.5394V21.2H73.4674C75.4514 21.2 76.9314 21.648 77.9074 22.544C78.8834 23.424 79.3714 24.816 79.3714 26.72V38H77.1154V26.408C77.1154 25.32 76.7794 24.536 76.1074 24.056C75.4514 23.56 74.5794 23.312 73.4914 23.312H69.7954V38ZM89.8657 38H87.6097V21.2H89.8657V38ZM88.7857 20.12L87.5377 19.112L90.3697 15.56L91.8577 17.048L88.7857 20.12ZM108.507 35V38H106.203V35C106.203 33.192 105.803 31.92 105.003 31.184C104.219 30.432 102.715 30.048 100.491 30.032V38H98.2347V21.2H100.491V28.04C101.675 28.072 102.379 28.104 102.603 28.136L105.987 21.2H108.435L104.643 28.664C107.219 29.608 108.507 31.72 108.507 35ZM39.152 49.2V51.312H34.904C33.288 51.312 32.48 51.968 32.48 53.28C32.48 53.984 32.832 54.584 33.536 55.08C34.256 55.56 35.224 56.024 36.44 56.472C36.984 56.68 37.448 56.896 37.832 57.12C38.216 57.328 38.6 57.608 38.984 57.96C39.368 58.312 39.656 58.768 39.848 59.328C40.04 59.872 40.136 60.504 40.136 61.224C40.136 62.024 39.968 62.744 39.632 63.384C39.296 64.008 38.864 64.504 38.336 64.872C37.808 65.224 37.264 65.496 36.704 65.688C36.16 65.864 35.624 65.96 35.096 65.976C34.872 65.992 34.552 66 34.136 66H30.392V63.888H34.064C35.152 63.888 36.04 63.664 36.728 63.216C37.416 62.752 37.76 62.08 37.76 61.2C37.76 60.768 37.664 60.392 37.472 60.072C37.28 59.736 37 59.448 36.632 59.208C36.28 58.968 35.912 58.76 35.528 58.584C35.16 58.408 34.712 58.224 34.184 58.032C34.04 57.984 33.928 57.944 33.848 57.912C31.336 56.952 30.08 55.384 30.08 53.208C30.08 51.864 30.512 50.864 31.376 50.208C32.24 49.536 33.368 49.2 34.76 49.2H39.152ZM46.6938 51.312V49.2H57.2538V51.312H53.1018V66H50.8458V51.312H46.6938ZM73.9954 49.2H76.2514V60.72C76.2514 62.624 75.7554 64.024 74.7634 64.92C73.7874 65.8 72.3074 66.24 70.3234 66.24C68.3394 66.24 66.8594 65.8 65.8834 64.92C64.9074 64.024 64.4194 62.624 64.4194 60.72V49.2H66.6754V61.032C66.6754 62.12 67.0034 62.912 67.6594 63.408C68.3314 63.888 69.2114 64.128 70.2994 64.128C71.4194 64.128 72.3154 63.888 72.9874 63.408C73.6594 62.912 73.9954 62.12 73.9954 61.032V49.2ZM96.0365 57.6C96.0205 60.272 95.2765 62.344 93.8045 63.816C92.3485 65.272 90.3325 66 87.7565 66H84.4925V49.2H87.7565C90.3325 49.2 92.3485 49.936 93.8045 51.408C95.2765 52.864 96.0205 54.928 96.0365 57.6ZM88.0445 63.888C89.8205 63.888 91.1805 63.304 92.1245 62.136C93.0845 60.952 93.5805 59.44 93.6125 57.6C93.5805 55.76 93.0845 54.256 92.1245 53.088C91.1805 51.904 89.8205 51.312 88.0445 51.312H86.7485V63.888H88.0445ZM113.596 66H104.044V53.208C104.044 52.024 104.42 51.072 105.172 50.352C105.684 49.872 106.26 49.56 106.9 49.416C107.54 49.272 108.324 49.2 109.252 49.2H113.596V51.312H108.94C107.18 51.312 106.3 52.048 106.3 53.52V56.256H111.844V58.368H106.3V63.888H113.596V66ZM123.608 66H121.352V49.2H127.28C129.264 49.2 130.744 49.648 131.72 50.544C132.696 51.424 133.184 52.816 133.184 54.72V66H130.928V54.408C130.928 53.32 130.592 52.536 129.92 52.056C129.264 51.56 128.392 51.312 127.304 51.312H123.608V66ZM140.342 51.312V49.2H150.902V51.312H146.75V66H144.494V51.312H140.342ZM168.46 63V66H166.156V63C166.156 61.192 165.756 59.92 164.956 59.184C164.172 58.432 162.668 58.048 160.444 58.032V66H158.188V49.2H160.444V56.04C161.628 56.072 162.332 56.104 162.556 56.136L165.94 49.2H168.388L164.596 56.664C167.172 57.608 168.46 59.72 168.46 63ZM186.608 49.2V50.4C186.608 52.352 186.24 54.144 185.504 55.776C184.784 57.392 183.728 58.624 182.336 59.472V66H180.08V59.52C178.688 58.688 177.616 57.48 176.864 55.896C176.112 54.296 175.736 52.536 175.736 50.616V49.2H178.04V50.4C178.04 52.048 178.272 53.464 178.736 54.648C179.216 55.816 180.04 56.776 181.208 57.528C183.304 56.136 184.352 53.76 184.352 50.4V49.2H186.608ZM32.816 81.52V84.736H37.28V86.848H32.816V94H30.56V81.208C30.56 80.024 30.936 79.072 31.688 78.352C32.2 77.872 32.776 77.56 33.416 77.416C34.056 77.272 34.84 77.2 35.768 77.2H38.312V79.312H35.456C33.696 79.312 32.816 80.048 32.816 81.52ZM45.3569 94V83.08C45.3569 81.144 45.8289 79.64 46.7729 78.568C47.7329 77.496 49.0929 76.96 50.8529 76.96C52.6289 76.96 53.9889 77.392 54.9329 78.256C55.8929 79.12 56.3729 80.336 56.3729 81.904C56.3729 82.912 56.1329 83.736 55.6529 84.376C55.1729 85.016 54.3569 85.52 53.2049 85.888V85.984C54.4049 86.448 55.2049 87.112 55.6049 87.976C56.0209 88.824 56.2289 90.232 56.2289 92.2V94H53.9729V90.928C53.9729 89.712 53.6289 88.768 52.9409 88.096C52.2529 87.408 51.2609 87.064 49.9649 87.064H48.6689V84.952H50.0369C51.5729 84.952 52.6369 84.64 53.2289 84.016C53.8209 83.392 54.1169 82.648 54.1169 81.784C54.1169 80.968 53.8209 80.312 53.2289 79.816C52.6529 79.32 51.8849 79.072 50.9249 79.072C49.8209 79.072 48.9889 79.384 48.4289 80.008C47.8849 80.632 47.6129 81.656 47.6129 83.08V94H45.3569ZM77.3861 85.672C77.3701 84.776 77.2341 83.928 76.9781 83.128C76.7381 82.328 76.3781 81.632 75.8981 81.04C75.4341 80.432 74.8661 79.952 74.1941 79.6C73.5221 79.248 72.7621 79.072 71.9141 79.072C71.0661 79.072 70.3061 79.248 69.6341 79.6C68.9621 79.952 68.3861 80.432 67.9061 81.04C67.4421 81.632 67.0821 82.328 66.8261 83.128C66.5861 83.928 66.4581 84.776 66.4421 85.672C66.4581 86.584 66.5861 87.432 66.8261 88.216C67.0821 89 67.4421 89.68 67.9061 90.256C68.3861 90.832 68.9621 91.288 69.6341 91.624C70.3061 91.96 71.0661 92.128 71.9141 92.128C72.7621 92.128 73.5221 91.96 74.1941 91.624C74.8661 91.288 75.4341 90.832 75.8981 90.256C76.3781 89.68 76.7381 89 76.9781 88.216C77.2341 87.432 77.3701 86.584 77.3861 85.672ZM64.0181 85.672C64.0341 84.344 64.2341 83.144 64.6181 82.072C65.0021 81 65.5381 80.088 66.2261 79.336C66.9141 78.568 67.7381 77.984 68.6981 77.584C69.6581 77.168 70.7301 76.96 71.9141 76.96C73.0821 76.96 74.1461 77.168 75.1061 77.584C76.0821 77.984 76.9141 78.568 77.6021 79.336C78.2901 80.088 78.8261 81 79.2101 82.072C79.5941 83.144 79.7941 84.344 79.8101 85.672C79.7941 87 79.5941 88.192 79.2101 89.248C78.8421 90.304 78.3141 91.2 77.6261 91.936C76.9381 92.672 76.1061 93.24 75.1301 93.64C74.1701 94.04 73.0981 94.24 71.9141 94.24C70.7301 94.24 69.6501 94.04 68.6741 93.64C67.7141 93.24 66.8901 92.672 66.2021 91.936C65.5141 91.2 64.9781 90.304 64.5941 89.248C64.2261 88.192 64.0341 87 64.0181 85.672ZM90.1938 94H87.9378V77.2H93.8658C95.8498 77.2 97.3298 77.648 98.3058 78.544C99.2818 79.424 99.7698 80.816 99.7698 82.72V94H97.5138V82.408C97.5138 81.32 97.1778 80.536 96.5058 80.056C95.8498 79.56 94.9778 79.312 93.8898 79.312H90.1938V94ZM106.928 79.312V77.2H117.488V79.312H113.336V94H111.08V79.312H106.928ZM134.206 94H124.654V81.208C124.654 80.024 125.03 79.072 125.782 78.352C126.294 77.872 126.87 77.56 127.51 77.416C128.15 77.272 128.934 77.2 129.862 77.2H134.206V79.312H129.55C127.79 79.312 126.91 80.048 126.91 81.52V84.256H132.454V86.368H126.91V91.888H134.206V94ZM144.217 94H141.961V77.2H147.889C149.873 77.2 151.353 77.648 152.329 78.544C153.305 79.424 153.793 80.816 153.793 82.72V94H151.537V82.408C151.537 81.32 151.201 80.536 150.529 80.056C149.873 79.56 149.001 79.312 147.913 79.312H144.217V94ZM173.576 85.6C173.56 88.272 172.816 90.344 171.344 91.816C169.888 93.272 167.872 94 165.296 94H162.032V77.2H165.296C167.872 77.2 169.888 77.936 171.344 79.408C172.816 80.864 173.56 82.928 173.576 85.6ZM165.584 91.888C167.36 91.888 168.72 91.304 169.664 90.136C170.624 88.952 171.12 87.44 171.152 85.6C171.12 83.76 170.624 82.256 169.664 81.088C168.72 79.904 167.36 79.312 165.584 79.312H164.288V91.888H165.584ZM191.159 77.2H193.415V88.72C193.415 90.624 192.919 92.024 191.927 92.92C190.951 93.8 189.471 94.24 187.487 94.24C185.503 94.24 184.023 93.8 183.047 92.92C182.071 92.024 181.583 90.624 181.583 88.72V77.2H183.839V89.032C183.839 90.12 184.167 90.912 184.823 91.408C185.495 91.888 186.375 92.128 187.463 92.128C188.583 92.128 189.479 91.888 190.151 91.408C190.823 90.912 191.159 90.12 191.159 89.032V77.2Z" fill="#FEF6E1"/>
<rect x="1" y="1" width="44" height="114" stroke="#F56767" stroke-width="2"/>
</svg>
